<svg width="295" height="270" viewBox="0 0 295 270" fill="none" xmlns="http://www.w3.org/2000/svg">
<path d="M200.82 36.16V106.5L139.78 87.25V0L200.82 36.16Z" fill="#FFF100"/>
<path d="M206.05 108.15V70.26L248.23 93.43V121.45L206.05 108.15Z" fill="#FFF100"/>
<path d="M248.23 87.5499V66.8799L223.01 73.5599L248.23 87.5499Z" fill="white"/>
<path d="M253.93 67.6799V123.24L294.48 136.03V91.6499L253.93 67.6799Z" fill="#FFCA02"/>
<path d="M134.61 87.2501V4.32007L97 38.9001V102.67L134.61 87.2501Z" fill="#FFF100"/>
<path d="M89.8799 105.58V80.48L60.1899 95.33V117.74L89.8799 105.58Z" fill="#FFCA02"/>
<path d="M89.8799 73.3499L60.1899 88.9199V50.1799L89.8799 63.1399V73.3499Z" fill="white"/>
<path d="M54.9501 119.89V50.1799L31.98 64.2399L31.8 129.38L54.9501 119.89Z" fill="#FFCA02"/>
<path d="M26.5 119.33V131.55L0.05 142.38L0 134.42L26.5 119.33Z" fill="#FFCA02"/>
<path d="M0 150.82L26.5 141.84V172L0.22 172.56L0 150.82Z" fill="#FFF100"/>
<path d="M31.8 140.04V171.89L54.9501 171.4V132.19L31.8 140.04Z" fill="#FFF100"/>
<path d="M60.1899 130.42V171.29L89.8799 170.66V120.36L60.1899 130.42Z" fill="#FFCA02"/>
<path d="M97 117.94V170.51L134.61 169.71V105.19L97 117.94Z" fill="#FFF100"/>
<path d="M0.27002 180.4L26.5 181.34V214.85L0.44002 209.28L0.27002 180.4Z" fill="#FFCA02"/>
<path d="M31.8 181.53V215.98L54.9501 220.93V182.36L31.8 181.53Z" fill="#FFCA02"/>
<path d="M60.1899 182.55V222.05L89.8799 228.4V183.61L60.1899 182.55Z" fill="#FFF100"/>
<path d="M97 183.87V229.92L134.61 237.97V185.21L97 183.87Z" fill="#FFF100"/>
<path d="M0.48002 216.23L0.27002 229.08L136.93 269.69L293.94 229.59L294 214.9L137.11 249.73L0.48002 216.23Z" fill="white"/>
<path d="M139.78 105.19L200.82 120.36V170.38L139.78 169.89V105.19Z" fill="#FFF100"/>
<path d="M206.05 122.17L248.23 132.97V170.77L206.05 170.38V122.17Z" fill="#FFF100"/>
<path d="M253.93 134.43V170.81L294.17 171.14L294.27 144.76L253.93 134.43Z" fill="#FFF100"/>
<path d="M139.78 185.04V237.97L200.82 225.91V183.21L139.78 185.04Z" fill="#FFF100"/>
<path d="M206.05 183.05V224.88L248.23 216.54V181.79L206.05 183.05Z" fill="#FFCA02"/>
<path d="M253.93 181.62V215.42L294.03 207.49L294.48 180.4L253.93 181.62Z" fill="#FFF100"/>
</svg>
